<svg xmlns="http://www.w3.org/2000/svg" width="1000" height="520" viewBox="0 0 1000 520" role="img" aria-labelledby="title desc">
<title id="title">WIKI canonical results before and after ledger synchronization</title>
<desc id="desc">Text-labelled documentation and provenance comparison; not detector data.</desc>
<defs><marker id="arrow" markerWidth="10" markerHeight="10" refX="8" refY="3" orient="auto"><path d="M0,0 L0,6 L9,3 z" fill="black"/></marker></defs>
<rect width="100%" height="100%" fill="white"/>
<text x="24" y="34" font-family="sans-serif" font-size="22" font-weight="bold">Public claims synchronized to exact-width ledger records</text>
<text x="24" y="58" font-family="sans-serif" font-size="13">Documentation/provenance evidence — no detector measurement is plotted</text>
<text x="340" y="89" font-family="sans-serif" font-size="14" font-weight="bold">Former public state</text>
<text x="735" y="89" font-family="sans-serif" font-size="14" font-weight="bold">Ledger-backed state</text>
<text x="24" y="125" font-family="sans-serif" font-size="13">B6 sigma68</text>
<rect x="250" y="104" width="300" height="28" fill="white" stroke="black" stroke-dasharray="6 4"/>
<text x="400" y="122" text-anchor="middle" font-family="monospace" font-size="11">VALIDATED</text>
<line x1="560" y1="118" x2="630" y2="118" stroke="black" marker-end="url(#arrow)"/>
<rect x="640" y="104" width="330" height="28" fill="#eeeeee" stroke="black"/>
<text x="805" y="122" text-anchor="middle" font-family="monospace" font-size="11">BLOCKED</text>
<text x="24" y="165" font-family="sans-serif" font-size="13">3-stave sigma</text>
<rect x="250" y="144" width="300" height="28" fill="white" stroke="black" stroke-dasharray="6 4"/>
<text x="400" y="162" text-anchor="middle" font-family="monospace" font-size="11">DONE_DATA_ONLY</text>
<line x1="560" y1="158" x2="630" y2="158" stroke="black" marker-end="url(#arrow)"/>
<rect x="640" y="144" width="330" height="28" fill="#eeeeee" stroke="black"/>
<text x="805" y="162" text-anchor="middle" font-family="monospace" font-size="11">BLOCKED</text>
<text x="24" y="205" font-family="sans-serif" font-size="13">covariance</text>
<rect x="250" y="184" width="300" height="28" fill="white" stroke="black" stroke-dasharray="6 4"/>
<text x="400" y="202" text-anchor="middle" font-family="monospace" font-size="11">DONE_DATA_ONLY</text>
<line x1="560" y1="198" x2="630" y2="198" stroke="black" marker-end="url(#arrow)"/>
<rect x="640" y="184" width="330" height="28" fill="#eeeeee" stroke="black"/>
<text x="805" y="202" text-anchor="middle" font-family="monospace" font-size="11">BLOCKED</text>
<text x="24" y="245" font-family="sans-serif" font-size="13">MV0 gain</text>
<rect x="250" y="224" width="300" height="28" fill="white" stroke="black" stroke-dasharray="6 4"/>
<text x="400" y="242" text-anchor="middle" font-family="monospace" font-size="11">VALIDATED + stat</text>
<line x1="560" y1="238" x2="630" y2="238" stroke="black" marker-end="url(#arrow)"/>
<rect x="640" y="224" width="330" height="28" fill="#eeeeee" stroke="black"/>
<text x="805" y="242" text-anchor="middle" font-family="monospace" font-size="11">GATED / no stat CI</text>
<text x="24" y="285" font-family="sans-serif" font-size="13">PID AUC</text>
<rect x="250" y="264" width="300" height="28" fill="white" stroke="black" stroke-dasharray="6 4"/>
<text x="400" y="282" text-anchor="middle" font-family="monospace" font-size="11">TRUTH_LEVEL_MC_ONLY</text>
<line x1="560" y1="278" x2="630" y2="278" stroke="black" marker-end="url(#arrow)"/>
<rect x="640" y="264" width="330" height="28" fill="#eeeeee" stroke="black"/>
<text x="805" y="282" text-anchor="middle" font-family="monospace" font-size="11">GATED MC-only</text>
<text x="24" y="325" font-family="sans-serif" font-size="13">MV3 profile</text>
<rect x="250" y="304" width="300" height="28" fill="white" stroke="black" stroke-dasharray="6 4"/>
<text x="400" y="322" text-anchor="middle" font-family="monospace" font-size="11">FAIL</text>
<line x1="560" y1="318" x2="630" y2="318" stroke="black" marker-end="url(#arrow)"/>
<rect x="640" y="304" width="330" height="28" fill="#eeeeee" stroke="black"/>
<text x="805" y="322" text-anchor="middle" font-family="monospace" font-size="11">FLAWED diagnostic</text>
<text x="24" y="365" font-family="sans-serif" font-size="13">MV4 raw</text>
<rect x="250" y="344" width="300" height="28" fill="white" stroke="black" stroke-dasharray="6 4"/>
<text x="400" y="362" text-anchor="middle" font-family="monospace" font-size="11">VALIDATED</text>
<line x1="560" y1="358" x2="630" y2="358" stroke="black" marker-end="url(#arrow)"/>
<rect x="640" y="344" width="330" height="28" fill="#eeeeee" stroke="black"/>
<text x="805" y="362" text-anchor="middle" font-family="monospace" font-size="11">GATED toy</text>
<text x="24" y="405" font-family="sans-serif" font-size="13">MV4 corrected</text>
<rect x="250" y="384" width="300" height="28" fill="white" stroke="black" stroke-dasharray="6 4"/>
<text x="400" y="402" text-anchor="middle" font-family="monospace" font-size="11">TENSION</text>
<line x1="560" y1="398" x2="630" y2="398" stroke="black" marker-end="url(#arrow)"/>
<rect x="640" y="384" width="330" height="28" fill="#eeeeee" stroke="black"/>
<text x="805" y="402" text-anchor="middle" font-family="monospace" font-size="11">GATED toy</text>
<text x="24" y="445" font-family="sans-serif" font-size="13">timing method</text>
<rect x="250" y="424" width="300" height="28" fill="white" stroke="black" stroke-dasharray="6 4"/>
<text x="400" y="442" text-anchor="middle" font-family="monospace" font-size="11">GATED ML</text>
<line x1="560" y1="438" x2="630" y2="438" stroke="black" marker-end="url(#arrow)"/>
<rect x="640" y="424" width="330" height="28" fill="#eeeeee" stroke="black"/>
<text x="805" y="442" text-anchor="middle" font-family="monospace" font-size="11">REVIEW analytic</text>
<text x="24" y="493" font-family="sans-serif" font-size="12">Pre-remediation findings: 31; post-remediation findings: 0; policy: WIKI_CANONICAL_RESULTS_MUST_MATCH_EXACT_WIDTH_LEDGER_ROWS</text>
</svg>
